<svg id="Layer_1" data-name="Layer 1" xmlns="http://www.w3.org/2000/svg" viewBox="0 0 306 108"><defs><style>.cls-1{fill:#107c10;}.cls-2{fill:#fff;}</style></defs><rect class="cls-1" x="0.09" width="306.06" height="108"/><rect class="cls-2" x="175.84" y="3" width="2.4" height="102"/><path class="cls-2" d="M257.46,5.61A22.41,22.41,0,1,0,279.87,28v0A22.45,22.45,0,0,0,257.46,5.61Zm-9,13.63h12.93l-1.92,3.11h-12.9ZM270,34.88l-1.9-3.11h-5.67l1.92-3.11h1.83L264,25.19l-6,9.69H241.73l3.93-6.22h-2.84l1.93-3.11h12.53l-1.92,3.11h-6l-1.92,3.11h8.87l7.78-12.53,9.79,15.64Z"/><path class="cls-2" d="M303.93,67.81h-6.4L290.76,81.9l-7-14.09h-6.67l10.24,21-6.86,13.63h6.59ZM262.86,86.66a6.86,6.86,0,1,1,6.86-6.86,6.86,6.86,0,0,1-6.86,6.86m-1.1,5.39a10.87,10.87,0,0,0,7.68-3v2.66h6.13V67.81h-6.13v2.66a10.38,10.38,0,0,0-7.41-3A12.14,12.14,0,0,0,250.14,79.8a12,12,0,0,0,11.62,12.25M246.94,56.29l-6.13,1.92V91.78h6.13ZM225.81,73.85h-7.72V64.06h7.68c3.2,0,5.4,2,5.4,4.85s-2.2,4.94-5.4,4.94M211.54,58.21V91.78h6.55V79.52h8.14c6.58,0,11.43-4.57,11.43-10.7s-4.57-10.61-11.21-10.61Z"/><path class="cls-2" d="M75.32,36.26h.08c6.69,5.16,18.26,17.83,14.74,21.4a22.49,22.49,0,0,1-29.64,0C57,54.09,68.5,41.42,75.25,36.3ZM87.09,21.5a22.52,22.52,0,0,0-23.45,0,.08.08,0,0,0,.11.11c4.36-.94,11,2.82,11.61,3.2h0c.63-.38,7.25-4.14,11.61-3.2a.08.08,0,0,0,.11,0A.09.09,0,0,0,87.09,21.5ZM59.56,24.67l-.09.07a22.5,22.5,0,0,0-2.06,29.62s.08.06.12,0a.08.08,0,0,0,0-.11C55.84,49,64.62,36.11,69.15,30.72a.09.09,0,0,0,0-.07.09.09,0,0,0,0-.07C62.27,23.75,59.94,24.47,59.56,24.67ZM81.5,30.58a.1.1,0,0,0,0,.14C86,36.11,94.8,49,93.09,54.28v.11s.09,0,.12,0a22.53,22.53,0,0,0-2-29.62l-.1-.07C90.7,24.47,88.37,23.75,81.5,30.58ZM32.21,70.24h-3.3L21.44,89.36h3l1.85-5h8.48l1.84,5h3Zm-5,11.62,3.31-8.75,3.3,8.75Zm-7.34-2.57V89.36H17.16v-2.5a6.94,6.94,0,0,1-2.59,2.19,8.42,8.42,0,0,1-3.6.74,9.44,9.44,0,0,1-3.71-.69A7.77,7.77,0,0,1,4.39,87a9,9,0,0,1-1.88-3.18,13.43,13.43,0,0,1,0-8.13A8.94,8.94,0,0,1,4.4,72.53a8.09,8.09,0,0,1,2.94-2,10.21,10.21,0,0,1,3.75-.68,9.19,9.19,0,0,1,5.83,1.82,7.6,7.6,0,0,1,2.74,4.92h-3a5,5,0,0,0-1.91-3,5.91,5.91,0,0,0-3.63-1.11,5.63,5.63,0,0,0-4.53,2A7.94,7.94,0,0,0,4.92,79.8a8,8,0,0,0,1.71,5.39,5.77,5.77,0,0,0,4.58,2,6,6,0,0,0,4.18-1.54,5.24,5.24,0,0,0,1.79-3.86H11.56v-2.5Zm46.77-6.42v5.54h9.49v2.44H66.68v5.89H77.41v2.62H63.75V70.24H77.41v2.63Zm-5.85-2.63V89.36H58V74.19c-.36,1.07-.85,2.39-1.45,3.94L52.26,89.36H49.8L45.44,78.13c-.52-1.39-1-2.69-1.42-3.88V89.36H41.2V70.24h4l3.89,10.17c.79,2.06,1.43,3.84,1.93,5.3.58-1.73,1.24-3.61,2-5.57l3.79-9.9Zm36.85,1.63a6.82,6.82,0,0,0-4.83-1.63H84.7V89.36h2.93v-7h5.22a6.82,6.82,0,0,0,4.83-1.63,6.5,6.5,0,0,0,0-8.82Zm-10,.95h5.15a3.74,3.74,0,0,1,2.71.9,3.46,3.46,0,0,1,.93,2.58,3.41,3.41,0,0,1-.93,2.56,3.77,3.77,0,0,1-2.71.89H87.63Zm44.12,11.24a5.07,5.07,0,0,1-2,4.2,8.79,8.79,0,0,1-5.47,1.53,9.1,9.1,0,0,1-5.89-1.72,6.17,6.17,0,0,1-2.14-5h2.92a4,4,0,0,0,1.33,3.2,6,6,0,0,0,3.84,1.06,5.5,5.5,0,0,0,3.23-.81,2.75,2.75,0,0,0,1.13-2.35,2.25,2.25,0,0,0-.93-1.92A9.64,9.64,0,0,0,124.43,81l-1.63-.35a9.41,9.41,0,0,1-4.46-1.93A4.76,4.76,0,0,1,116.83,75a4.57,4.57,0,0,1,1.83-3.78,7.94,7.94,0,0,1,5-1.41,8.65,8.65,0,0,1,5.65,1.61,5.68,5.68,0,0,1,2,4.44h-2.89a3.66,3.66,0,0,0-1.21-2.7,5.63,5.63,0,0,0-3.48-.86,5,5,0,0,0-2.85.69,2.61,2.61,0,0,0-.13,4A8.23,8.23,0,0,0,124,78.21l1.66.35a10.14,10.14,0,0,1,4.72,2,4.63,4.63,0,0,1,1.37,3.5Zm17,0a5.07,5.07,0,0,1-2,4.2,8.79,8.79,0,0,1-5.47,1.53,9.1,9.1,0,0,1-5.89-1.72,6.16,6.16,0,0,1-2.14-5h2.92a4,4,0,0,0,1.33,3.2,6,6,0,0,0,3.83,1.06,5.51,5.51,0,0,0,3.24-.81,2.75,2.75,0,0,0,1.13-2.35,2.25,2.25,0,0,0-.93-1.92A9.79,9.79,0,0,0,141.44,81l-1.63-.35a9.41,9.41,0,0,1-4.46-1.93A4.76,4.76,0,0,1,133.84,75a4.57,4.57,0,0,1,1.83-3.78,7.89,7.89,0,0,1,4.94-1.41,8.55,8.55,0,0,1,5.66,1.61,5.71,5.71,0,0,1,1.95,4.44h-2.89a3.66,3.66,0,0,0-1.21-2.7,5.63,5.63,0,0,0-3.48-.86,5,5,0,0,0-2.85.69,2.22,2.22,0,0,0-1,2,2.32,2.32,0,0,0,.88,2,8.08,8.08,0,0,0,3.25,1.22l1.66.35a10.1,10.1,0,0,1,4.71,2A4.6,4.6,0,0,1,148.76,84.06ZM108.14,70.24h-3.3L97.37,89.36h3l1.85-5h8.48l1.84,5h3Zm-5,11.62,3.31-8.75,3.3,8.75Z"/></svg>