<?xml version="1.0" encoding="utf-8"?>
<!-- Generator: Adobe Illustrator 24.2.0, SVG Export Plug-In . SVG Version: 6.00 Build 0)  -->
<svg version="1.1" id="Layer_1" xmlns="http://www.w3.org/2000/svg" xmlns:xlink="http://www.w3.org/1999/xlink" x="0px" y="0px"
	 viewBox="0 0 154 48" style="enable-background:new 0 0 154 48;" xml:space="preserve">
<style type="text/css">
	.st0{fill:#FFFFFF;}
</style>
<g id="Layer_2_1_">
</g>
<g>
	<path class="st0" d="M139.6,33.3c-2.3,2.4-5.4,3.5-9.3,3.5h-4.5V11.1h4.5c4,0,7.1,1.1,9.4,3.3c2.3,2.2,3.4,5.3,3.4,9.2
		C143,27.7,141.9,31,139.6,33.3 M131,3.7h-14.4v40.6H131c4.3,0,8-0.9,11.3-2.6c3.3-1.7,5.8-4.2,7.6-7.3c1.8-3.2,2.7-6.8,2.7-10.9
		C152.7,10.3,145.5,3.7,131,3.7 M112.2,36.9h-15V3.7H88v40.6h24.2V36.9z M69.5,33.7c-1.8,2.3-4.4,3.4-7.5,3.4
		c-3.1,0-5.6-1.2-7.4-3.6c-1.9-2.4-2.8-5.5-2.8-9.5c0-4,1-7.2,2.9-9.6c1.9-2.4,4.4-3.6,7.6-3.6c3.2,0,5.6,1.2,7.4,3.6
		c1.8,2.4,2.7,5.6,2.7,9.8C72.3,28.2,71.4,31.4,69.5,33.7 M79.5,12.9c-1.6-3.1-3.9-5.6-6.9-7.3C69.6,3.9,66.2,3,62.5,3
		c-4,0-7.6,0.9-10.7,2.7c-3.1,1.8-5.5,4.3-7.2,7.6c-1.7,3.3-2.5,7-2.5,11.2c0,4,0.8,7.5,2.5,10.6c1.7,3.1,4,5.5,7,7.3
		c3,1.7,6.4,2.6,10.2,2.6c3.9,0,7.3-0.9,10.4-2.7c3.1-1.8,5.4-4.3,7.1-7.5c1.7-3.2,2.5-7,2.5-11.1C81.9,19.6,81.1,16,79.5,12.9
		 M37.2,21.2H19.9v7.3h8.1v7.9c-1.3,0.6-3,0.9-5.2,0.9c-3.7,0-6.6-1.1-8.7-3.4S11,28.4,11,24.2c0-2.7,0.5-5,1.6-7.1
		c1.1-2.1,2.6-3.7,4.5-4.8c2-1.1,4.2-1.7,6.7-1.7c4.5,0,8.3,0.9,11.5,2.7V4.8C32,3.6,28.2,3,23.9,3c-4.4,0-8.3,0.9-11.8,2.7
		c-3.4,1.8-6.1,4.4-8,7.7c-1.9,3.3-2.8,7.1-2.8,11.3C1.3,31,3.2,35.9,7,39.6c3.8,3.6,8.9,5.4,15.5,5.4c5.9,0,10.8-1.1,14.8-3.4V21.2
		z"/>
</g>
</svg>
